<svg width="1000" height="1000" viewBox="0 0 1000 1000" fill="none" xmlns="http://www.w3.org/2000/svg">
<rect x="5" y="5" width="990" height="990" rx="95" fill="#232829"/>
<rect x="5" y="5" width="990" height="990" rx="95" stroke="#E1FFDA" stroke-width="10"/>
<rect x="98" y="98" width="803" height="397" rx="45" stroke="#E1FFDA" stroke-width="10"/>
<line x1="93" y1="383" x2="906" y2="383" stroke="#E1FFDA" stroke-width="10"/>
<line x1="505" y1="388" x2="505" y2="500" stroke="#E1FFDA" stroke-width="10"/>
<path d="M430.74 899.375C415.646 899.375 401.251 896.161 387.555 889.732C373.858 883.303 362.259 874.219 352.755 862.479L154.859 618.464C149.269 611.755 146.753 604.208 147.312 595.823C147.872 587.437 151.226 580.17 157.375 574.021C167.997 563.399 180.575 557.25 195.109 555.573C209.644 553.896 222.781 557.25 234.521 565.635L331.792 633.557V295.625C331.792 286.122 335.006 278.155 341.435 271.727C347.864 265.298 355.83 262.083 365.333 262.083C374.837 262.083 382.803 265.298 389.232 271.727C395.661 278.155 398.875 286.122 398.875 295.625V698.125C398.875 711.542 392.865 721.464 380.846 727.893C368.827 734.322 357.227 733.623 346.047 725.797L305.797 697.286L404.745 819.714C408.099 823.627 412.012 826.701 416.484 828.937C420.957 831.174 425.708 832.292 430.74 832.292H667.208C685.656 832.292 701.449 825.723 714.586 812.586C727.723 799.449 734.292 783.656 734.292 765.208V530.417C734.292 520.913 737.506 512.947 743.935 506.518C750.364 500.089 758.33 496.875 767.833 496.875C777.337 496.875 785.303 500.089 791.732 506.518C798.161 512.947 801.375 520.913 801.375 530.417V765.208C801.375 802.104 788.238 833.689 761.963 859.964C735.689 886.238 704.104 899.375 667.208 899.375H430.74ZM499.5 396.25C509.003 396.25 516.97 399.464 523.398 405.893C529.827 412.322 533.042 420.288 533.042 429.792V597.5C533.042 607.003 529.827 614.97 523.398 621.398C516.97 627.827 509.003 631.042 499.5 631.042C489.997 631.042 482.03 627.827 475.602 621.398C469.173 614.97 465.958 607.003 465.958 597.5V429.792C465.958 420.288 469.173 412.322 475.602 405.893C482.03 399.464 489.997 396.25 499.5 396.25ZM633.667 429.792C643.17 429.792 651.136 433.006 657.565 439.435C663.994 445.864 667.208 453.83 667.208 463.333V597.5C667.208 607.003 663.994 614.97 657.565 621.398C651.136 627.827 643.17 631.042 633.667 631.042C624.163 631.042 616.197 627.827 609.768 621.398C603.339 614.97 600.125 607.003 600.125 597.5V463.333C600.125 453.83 603.339 445.864 609.768 439.435C616.197 433.006 624.163 429.792 633.667 429.792Z" fill="#E1FFDA"/>
</svg>
